<?xml version="1.0" encoding="UTF-8" standalone="no"?>
<svg
   viewBox="0 0 528.10999 155.94051"
   version="1.1"
   id="svg288"
   sodipodi:docname="margarita_network.svg"
   inkscape:export-filename="margarita_network_2.png"
   inkscape:export-xdpi="96"
   inkscape:export-ydpi="96"
   inkscape:version="1.2.2 (732a01da63, 2022-12-09)"
   width="528.10999"
   height="155.94051"
   xmlns:inkscape="http://www.inkscape.org/namespaces/inkscape"
   xmlns:sodipodi="http://sodipodi.sourceforge.net/DTD/sodipodi-0.dtd"
   xmlns="http://www.w3.org/2000/svg"
   xmlns:svg="http://www.w3.org/2000/svg">
  <defs
     id="defs292" />
  <sodipodi:namedview
     id="namedview290"
     pagecolor="#ffffff"
     bordercolor="#000000"
     borderopacity="0.25"
     inkscape:showpageshadow="2"
     inkscape:pageopacity="0.0"
     inkscape:pagecheckerboard="0"
     inkscape:deskcolor="#d1d1d1"
     showgrid="false"
     inkscape:zoom="0.67"
     inkscape:cx="-238.80597"
     inkscape:cy="-148.50746"
     inkscape:window-width="1920"
     inkscape:window-height="991"
     inkscape:window-x="-9"
     inkscape:window-y="-9"
     inkscape:window-maximized="1"
     inkscape:current-layer="svg288" />
  <g
     id="g907"
     style="display:inline;fill:#a51d2d"
     inkscape:label="bg"
     transform="translate(-49.68,-225.42949)">
    <path
       d="m 414.32,301.8 h 5.15 v -3.49 L 419.4,298 c -0.75,-3.52 -0.41,-6.91 1.69,-16.51 l 6.12,-28.7 1,-4.5 -4.51,0.94 -0.6,0.13 a 11.63,11.63 0 0 0 5.81,-10.13 12.045,12.045 0 0 0 -24.09,0 11.71,11.71 0 0 0 10.54,11.77 l -12.55,2.61 v -0.09 l 1.17,-3.87 h -4 a 19.32,19.32 0 0 0 -14,6.1 l 0.64,-2.89 1,-4.56 -4.58,1 -21.55,4.58 -1.84,0.39 0.22,-0.83 1,-3.76 h -5.09 l -0.3,0.06 -5.24,1.08 a 40.05,40.05 0 0 0 -9.58,-1.14 32.63,32.63 0 0 0 -23.15,9 l 2.11,-9.42 0.23,-1.05 -0.48,-1 -0.09,-0.17 -1.27,-2.51 -2.58,1.1 -14.2,6 a 19.9,19.9 0 0 0 -8.76,-2 c -11.44,0 -21.66,7.33 -24.2,16.54 h -26 l 3.85,-12.67 1.17,-3.87 h -4 q -7.8,0 -14,6.1 l 0.65,-2.89 1,-4.56 -4.58,1 -19.16,4.07 1,-3.69 h -5.09 l -0.3,0.06 -5.24,1.08 a 40.07,40.07 0 0 0 -9.59,-1.14 32.9,32.9 0 0 0 -26.48,12.64 39.34,39.34 0 0 0 -4,6.11 l 0.2,-1 c 1.45,-6.93 -0.45,-11.1 -2.29,-13.37 a 12.49,12.49 0 0 0 -10,-4.41 c -5.63,0 -10.6,3 -15,9.14 a 12.18,12.18 0 0 0 -2.4,-4.93 11.9,11.9 0 0 0 -9.47,-4.21 c -4.41,0 -8.4,1.81 -12,5.48 l 0.49,-2.29 1,-4.52 -4.53,0.95 -21.73,4.58 -2.38,0.5 V 258 l 0.67,0.83 c 3.09,3.81 2.64,9.32 1.71,13.26 v 0.06 L 80,280.42 c -1.9,8.26 -2.87,12.11 -5.86,16.56 l -0.51,0.75 v 4.09 h 6.94 l -11.54,2.45 -3.17,0.68 v 4.93 l 0.88,1.09 c 5.08,6.31 4.36,15.34 2.86,21.79 v 0.07 L 66.87,346 c -2.61,12 -4.58,19.09 -8.73,27 l -0.46,0.88 v 5.27 h 38.8 v -4.7 l -0.09,-0.42 c -1.17,-5.52 -0.78,-10.88 1.52,-20.49 v -0.14 -0.13 l 0.08,-0.43 a 196,196 0 0 1 10.2,-22.61 c 3.06,-5.48 5.13,-7.65 6.24,-8.5 a 15.5,15.5 0 0 1 -0.41,2.66 v 0.05 l -11.34,51.24 -1.15,5.2 5.32,-0.34 34.44,-2.24 3.74,-0.25 v -6.25 l -1.89,-1.17 c -3.06,-1.91 -4.91,-3.52 -3.71,-11 3.41,13.48 13.33,21.72 27.2,21.72 a 31.77,31.77 0 0 0 21.23,-7.89 c 6.3,-5.5 11,-13.63 13.85,-24.18 l 0.89,-3.26 -3.08,-1.42 -1.82,-0.84 -3.32,-1.54 -1.82,3.18 c -4.15,7.26 -10.22,8.35 -13.47,8.35 -2.5,0 -10.06,0 -10.14,-15.76 12.15,-0.94 21.66,-3.5 28.33,-7.63 6.67,-4.13 10.45,-10 10.45,-16.43 0,-0.07 0,-0.14 0,-0.2 h 3 l -8.28,36.7 c -2.37,10.34 -1.28,18.76 3.15,24.32 3.44,4.32 8.64,6.6 15,6.6 13.86,0 27,-10.48 34.33,-27.33 l 1.27,-2.94 -2.59,-1.89 -1.54,-1.12 -3,-2.19 -2.4,2.85 c -4.32,5.13 -8.31,8 -11.22,8 a 1.88,1.88 0 0 1 -0.81,-0.12 v 0 c 0,0 -0.66,-1 0.1,-4.57 l 8.53,-38.27 h 12.45 c 0.52,2.51 2.36,5.47 7.61,7.37 0.16,1.72 0.26,3.59 0.32,5.67 l 1.54,49.16 0.12,3.88 h 17.15 l 1.18,-1.88 18.5,-29.58 0.85,27.58 0.12,3.88 h 17.32 l 1.17,-1.91 43.82,-71.54 0.59,-1 v -3.6 h 12.91 v -3.46 l -0.05,-0.28 c -0.59,-3.08 -0.69,-6.15 0.67,-11.9 l 0.43,-1.63 c 2.92,-11.06 5.29,-11.06 8.28,-11.06 a 8.87,8.87 0 0 1 4.26,0.83 l 0.63,0.31 h 3.28 l 0.65,-2.13 3.76,-12.39 c 1.69,2.9 2,6.93 0.82,12 l -1.78,8.31 C 398,288.61 397.05,292.45 394,297 l -0.51,0.75 v 0.19 c -22.78,2.86 -43.81,25.33 -43.81,48.21 0,20.4 13.45,35.22 32,35.22 24.62,0 48.8,-24 48.8,-48.52 0.02,-13.95 -6.26,-25.25 -16.16,-31.05 z m -27.13,27.82 c 4.55,-16.18 9,-19.92 10.3,-20 0.21,0.38 0.79,1.75 0.79,5.52 0,7.35 -1.87,21.43 -5.42,34.11 -4.47,16 -8.9,19.81 -10.24,20 -0.23,-0.39 -0.84,-1.79 -0.84,-5.65 0,-7.3 1.86,-21.32 5.41,-33.98 z m -49,-22.17 c 2.3,1.73 7,5.26 -3.59,24.62 l -0.65,-28.2 v -1.49 l 2.68,-0.23 v 4.1 z m -163.9,-24.66 c 0,-10.62 6.72,-23.51 10.46,-24.56 l -3.58,12.84 a 72.4,72.4 0 0 1 -4,11.41 c -1.17,2.38 -2,3.18 -2.42,3.44 a 8.76,8.76 0 0 1 -0.46,-3.13 z m 30.42,-11.54 -2,9.13 c -1.41,6.18 -2.3,9.88 -3.93,13.25 -1,-1.2 -1.42,-3.21 -0.19,-7.35 v -0.08 l 6.3,-23.77 a 19.89,19.89 0 0 1 -0.18,8.82 z m 81.91,6.81 c 0.38,-5.56 3.12,-14.71 5.35,-18.44 -0.37,5.57 -3.11,14.72 -5.35,18.44 z m 40.38,4.73 c 0,-10.62 6.72,-23.51 10.46,-24.56 l -3.58,12.84 a 71.75,71.75 0 0 1 -4,11.4 c -1.18,2.39 -2,3.19 -2.42,3.45 A 8.43,8.43 0 0 1 327,282.79 Z M 310.47,300 h -2.24 c -1.7,-6.89 -8.75,-10.58 -22.25,-11.81 l -1.35,-0.13 c 0.47,0 0.95,0.05 1.43,0.05 a 27.06,27.06 0 0 0 20.41,-9.38 36.27,36.27 0 0 0 -0.86,7.7 c 0,6.57 2.04,10.93 4.86,13.57 z m -9.05,25.6 -4.64,7.48 -0.34,-13.2 a 26.36,26.36 0 0 0 4.24,-2.19 66.3,66.3 0 0 1 0.74,7.88 z m -56.29,-42.82 h -2.76 l -0.93,0.53 -19.63,11.33 a 32,32 0 0 1 1.08,-8.45 l 0.43,-1.63 c 1.29,-4.9 2.48,-7.63 3.66,-9.15 l -0.79,2.15 -1.49,4 h 41.7 a 16,16 0 0 0 -6.93,13.27 13.51,13.51 0 0 0 0.9,5 h -14.05 l 2.7,-12.22 1.08,-4.86 z m 31.09,3.6 a 1.61,1.61 0 0 1 0.53,-0.65 18.13,18.13 0 0 0 6.06,2.12 c -4.5,-0.6 -6.07,-1.21 -6.59,-1.5 z m -6.06,-7.12 -0.85,0.45 v -0.08 l 0.41,-1.1 c 0.16,0.21 0.28,0.47 0.44,0.7 z m 40.62,-11.84 a 15.33,15.33 0 0 0 -0.9,-5 l 3,0.89 0.41,0.12 v 0 a 37,37 0 0 0 -2.51,3.96 z M 164.5,303.09 a 49,49 0 0 0 -12.24,9.51 52,52 0 0 0 -4.94,6.17 c 0.28,-7.08 -2,-11.68 -4.21,-14.44 a 16.87,16.87 0 0 0 -2.18,-2.21 l 13.14,-0.85 2.81,-0.18 V 299 a 12.08,12.08 0 0 0 7.62,4.09 z m -64.85,-5.32 c -0.67,-3.31 -0.4,-6.6 1,-12.43 l 0.09,-0.35 v -0.05 c 1.8,-4.61 3.9,-9.75 5.93,-13.65 a 31.37,31.37 0 0 1 2.65,-4.33 l -3.69,16.83 c -1.6,6.67 -2.66,10.88 -4.28,13.06 l -0.49,0.66 z m 8.48,4 h 6.21 a 37.44,37.44 0 0 0 -7.69,6.94 z M 127.45,286 v -0.14 -0.15 -0.35 a 152.12,152.12 0 0 1 6,-14.05 29.38,29.38 0 0 1 2.77,-4.51 v 0 l -6.95,30.8 c -0.44,0 -0.87,-0.06 -1.32,-0.06 -0.45,0 -0.91,0 -1.36,0 -0.17,-1.42 -0.59,-5.38 0.86,-11.54 z m 25.73,4 a 20.05,20.05 0 0 0 1.28,5 c -1.05,-0.58 -1.69,-1.52 -1.28,-5 z M 171,324.59 c 2.74,-8.95 7.58,-14.39 10.27,-14.9 a 8.46,8.46 0 0 1 0.18,2 c -0.03,5.49 -3.69,9.95 -10.45,12.9 z m 30.49,-22.79 h 7.9 l -1.38,0.8 -1.58,0.92 -0.35,1.79 -0.23,1.2 a 15.11,15.11 0 0 0 -4.39,-4.71 z m 158.37,-43 c 2.14,2.7 2.69,7.13 1.55,12.47 l -2,9.13 c -1.68,7.41 -2.63,11.26 -5,15.23 l -1.33,-0.74 c -1.87,-1.06 -3.56,-2.59 -1.78,-8.59 v -0.08 l 7.94,-30 V 258 Z"
       fill="#5f7884"
       id="path148"
       style="fill:#a51d2d" />
    <path
       d="m 573.87,299.83 h -31.16 v 5.84 l 0.9,1.1 c 2.59,3.19 -0.14,7.44 -3.27,10.11 l -13.4,11.18 14.16,-63.26 1.36,-6.11 -6.11,1.31 -30.44,6.58 3.51,-13.23 1,-3.76 h -5.09 l -0.3,0.06 -5.24,1.08 a 40.05,40.05 0 0 0 -9.58,-1.14 32.87,32.87 0 0 0 -26.48,12.64 40.44,40.44 0 0 0 -8,17.6 l -0.08,-0.06 -1.8,2.11 c -2.61,3.08 -5.07,4.84 -6.76,4.84 h -0.16 a 5.79,5.79 0 0 1 0.17,-2.34 l 5.32,-23.68 h 11.87 l 0.47,-2.43 0.71,-3.7 0.68,-3.57 h -11.61 l 1.58,-7.08 0.81,-3.65 h -5.6 l -0.69,0.4 -21.2,12.14 -1.2,0.68 -0.26,1.35 -0.44,2.29 -0.7,3.57 h 4 l -5.11,22.47 c -1.94,8.38 0.05,13.15 2.06,15.67 2.27,2.85 5.7,4.36 9.91,4.36 0.53,0 1.05,0 1.58,-0.07 l -5.28,1.12 -3.16,0.68 v 4.9 l 0.85,1.09 c 3.52,4.48 4.45,11.76 2.59,20.5 l -3.21,14.52 c -3,13.21 -4.51,19.37 -9.36,26.65 l -0.67,1 v 5.49 h 39.5 v -4.66 l -0.08,-0.37 c -0.95,-5 -1.1,-10 1.08,-19.29 l 0.68,-2.61 C 467,334 471.2,334 476,334 a 14.67,14.67 0 0 1 7,1.39 l 0.84,0.43 h 4.48 l 0.86,-2.85 9.1,-30.24 0.51,-1.7 1.71,-0.15 -10.12,45 c -3.41,14.87 -5,20.61 -9.17,26.58 l -0.73,1 v 5.55 h 39.64 v -4.7 l -0.08,-0.42 c -1,-4.78 -1.09,-9.3 1.3,-21 l 7.35,23.29 0.88,2.8 h 36.61 v -6.31 l -1.64,-1.2 c -2.7,-2 -4.7,-5.41 -6.67,-11.45 l -10.65,-32.84 3,-2.47 v 0 0 c 9.61,-8.24 15.82,-12.86 25.15,-16.86 l 2.42,-1 v -7.05 z m -97,-13.91 a 8.43,8.43 0 0 1 -0.42,-3.13 c 0,-10.62 6.72,-23.51 10.46,-24.56 l -3.58,12.84 a 71.75,71.75 0 0 1 -4,11.4 c -1.24,2.39 -2.1,3.19 -2.48,3.45 z m -5.69,23.08 1.45,-6.51 a 14.75,14.75 0 0 0 3.84,-2 l -0.71,2.54 2.28,-0.2 a 39.42,39.42 0 0 0 -6.86,6.17 z m 29.52,-22.73 v -0.08 l 1.46,-5.52 c 0.89,3.87 0.78,8.05 -0.27,13.84 -1.6,-1.06 -2.78,-2.85 -1.19,-8.23 z m -44.86,6.47 a 15.35,15.35 0 0 0 3.11,6.18 l -15.32,3.27 a 25.5,25.5 0 0 0 12.21,-9.44 z"
       fill="#5f7884"
       id="path150"
       style="fill:#a51d2d" />
  </g>
  <path
     d="m 58.32,97.380512 c 0.74,-3.17 0.51,-4.93 0.08,-5.47 -0.06,-0.07 -0.17,-0.21 -0.65,-0.21 -2.87,0 -8.55,5.75 -19.34,33.109998 l -0.12,0.7 v 0.07 c -2.34,9.81 -2.75,15.61 -1.52,21.38 v 0.21 2.49 H 2 v -2.78 l 0.23,-0.43 c 4.26,-8.09 6.27,-15.32 8.92,-27.5 l 2.79,-13.15 C 15.55,98.880512 16.28,89.210512 10.7,82.270512 l -0.44,-0.55 v -2.6 l 38.9,-8.26 -4.13,19.35 c 7.43,-12.12 15.78,-18.05 25.33,-18.05 5.59,0 10.39,2.13 13.52,6 2.55,3.17 5.14,9 3,19 l -6,29.649998 c -2.89,11.86 -1.31,15 3.58,18.07 l 0.94,0.59 v 3.26 l -39,2.54 z"
     id="path152" />
  <path
     d="m 108.98,151.90051 c -16.35,0 -26.5,-11.77 -26.5,-30.7 A 50.43,50.43 0 0 1 96.04,86.570512 c 8.7,-9.27 20.11,-14.38 32.12,-14.38 12.29,0 19.92,5.48 19.92,14.32 0,4.69 -2.84,19.999998 -38.77,22.199998 0,0.5 0,1 0,1.6 0,12 4.08,18 12.14,18 3.68,0 10.55,-1.22 15.2,-9.35 l 0.91,-1.6 5,2.32 -0.44,1.64 c -5.4,19.71 -17.17,30.58 -33.14,30.58 z m 15,-71.679998 c -4.63,0 -11,8.42 -13.56,20.139998 9.92,-3.119998 15.34,-8.769998 15.34,-16.119998 -0.02,-4.02 -1.22,-4.02 -1.8,-4.02 z"
     id="path156" />
  <path
     d="m 247.38,150.36051 -1.12,-36.1 -22.58,36.1 h -14.1 l -1.6,-51.079998 c -0.27,-10.58 -1.8,-16.53 -5.46,-21.24 l -0.42,-0.54 v -3 h 34.22 l 1,37.819998 8.48,-13.679998 c -0.34,-9.82 -2,-16.4 -5.18,-20.66 l -0.4,-0.54 v -2.87 h 34.05 l 0.86,37.299998 2.32,-4 c 11.53,-20.149998 8.65,-26.199998 4.31,-29.449998 l -0.8,-0.6 v -3.25 h 25.36 v 2.84 l -44.7,72.999998 z"
     id="path160" />
  <path
     d="m 324.02,151.90051 c -17.39,0 -30,-14 -30,-33.22 0,-23.479998 23.11,-46.519998 46.66,-46.519998 17.46,0 30.14,14 30.14,33.219998 0,23.47 -23.19,46.52 -46.8,46.52 z m 15.82,-71.679998 c -8.84,0 -17.74,38.369998 -17.74,55.999998 0,3.49 0.47,7.66 2.76,7.66 3,0 7.81,-5.64 12.25,-21.45 3.6,-12.85 5.49,-27.159998 5.49,-34.649998 0,-7.49 -2.08,-7.56 -2.76,-7.56 z"
     id="path164" />
  <path
     d="m 365.4,149.66051 v -2.89 l 0.33,-0.5 c 5,-7.56 6.69,-14.21 9.65,-27.33 l 3.22,-14.56 c 2,-9.299998 0.92,-17.169998 -3,-22.129998 l -0.42,-0.54 v -2.59 l 38.65,-8.27 -4.32,19.32 c 7.54,-12.09 16.55,-18 27.31,-18 h 2.69 l -10.29,34.229998 h -2.52 l -0.42,-0.21 a 16.44,16.44 0 0 0 -7.96,-1.62 c -6.38,0 -10.92,1.36 -15.71,19.64 l -0.7,2.67 c -2.26,9.61 -2.1,14.83 -1.09,20.11 v 0.19 2.47 z"
     id="path168" />
  <path
     d="m 473.43,149.66051 -10.06,-31.86 -0.38,1.73 c -3.34,14.79 -3.9,21 -2.52,27.43 v 0.21 2.49 h -35.6 v -2.92 l 0.37,-0.51 c 4.4,-6.27 6,-12.13 9.48,-27.3 l 10.22,-45.489998 c 2.94,-12.54 3.38,-19.24 -1.49,-28.3 l -0.24,-0.44 v -2.4 l 38.94,-8.42 -16.12,72.049998 17.94,-14.999998 c 4.93,-4.21 6.35,-9.39 3.51,-12.88 l -0.45,-0.55 v -3.13 h 31.16 v 3.73 l -1.21,0.52 c -9.56,4.1 -15.9,8.81 -25.66,17.18 l -4,3.36 11,34.159998 c 2.11,6.47 4.32,10.2 7.39,12.44 l 0.82,0.6 v 3.3 z"
     id="path172" />
  <path
     d="m 162.94,151.90051 c -5.76,0 -10.42,-2 -13.46,-5.85 -4,-5.06 -5,-12.89 -2.77,-22.64 l 8.83,-39.129998 h -6.36 l 1.33,-6.92 34.71,-20 h 4.71 l -3.78,17.08 h 18.4 l -1.88,9.88 H 184 l -8.89,39.869998 c -0.85,4 -0.16,5.63 0.33,6.24 0.17,0.21 0.68,0.85 2.34,0.85 3.56,0 8,-3 12.75,-8.67 l 1.2,-1.42 4.34,3.15 -0.64,1.47 c -6.99,16.08 -19.44,26.09 -32.49,26.09 z"
     id="path176" />
  <path
     d="m 80.1,39.720512 c 0.47,-2.21 0.2,-3.11 0.06,-3.27 h -0.1 c -3.56,0 -9.59,15.7 -11.66,21.13 l -0.08,0.6 v 0.08 c -1.58,6.87 -1,11.13 -0.7,12.64 v 0.15 1.83 h -23 v -2.17 l 0.29,-0.39 c 1.79,-2.42 2.84,-6.55 4.54,-13.63 l 3.72,-16.95 c 0.51,-2.41 0.19,-3.15 0.12,-3.28 h -0.08 c -3.45,0 -9.3,14.84 -11.62,20.79 v 0.16 0.17 c -1.47,6.13 -1.73,9.74 -1,13.32 v 0.16 1.83 H 17.53 v -2.13 l 0.26,-0.38 c 3.26,-4.86 4.26,-9.2 6.08,-17.1 l 1.77,-8.25 c 1,-4.3 1.47,-10.29 -2,-14.58 l -0.33,-0.41 v -1.93 l 25.19,-5.3 -2.35,10.85 c 4.35,-6.69 9.26,-10 14.85,-10 a 10.45,10.45 0 0 1 8.31,3.66 c 1.29,1.56 2.59,4.19 2.52,8.37 4.66,-8.08 10,-12 16,-12 a 11,11 0 0 1 8.79,3.85 c 1.64,2 3.32,5.77 2,12.12 l -3.91,18.66 c -1.78,8.18 -0.67,9.69 2.1,11 l 0.86,0.4 v 2.53 l -25.31,1.63 z"
     id="path180" />
  <path
     d="m 108.46,74.280512 c -5.65,0 -11.7,-4 -11.7,-15.31 0,-14.24 10.68,-35.29 33.61,-35.29 a 38.9,38.9 0 0 1 9.55,1.18 l 5.73,-1.18 h 3 l -9.19,34.7 c -2,6.77 0,9 2.48,10.37 l 0.76,0.43 v 2.6 l -24.72,2.16 1.61,-5.77 c -2.86,3.52 -6.48,6.11 -11.13,6.11 z m 19.07,-45 c -5.22,0 -12.42,15.14 -12.42,26.13 0,1.11 0.12,4.75 1.69,4.75 3.51,0 7,-12.1 8.14,-16.08 l 3.86,-13.88 a 1.21,1.21 0 0 0 -1.27,-0.97 z"
     id="path184" />
  <path
     d="m 140.13,72.870512 v -2.13 l 0.26,-0.38 c 3.16,-4.71 4.2,-8.87 6.08,-17.09 l 2,-9.15 c 1.24,-5.77 0.59,-10.64 -1.84,-13.7 l -0.32,-0.41 v -1.91 l 25,-5.32 -2.55,11.34 c 4.7,-6.94 10.33,-10.44 16.81,-10.44 h 2 l -6.68,22 h -1.82 l -0.31,-0.15 a 10.32,10.32 0 0 0 -4.92,-1 c -3.94,0 -6.74,0.85 -9.73,12.17 l -0.44,1.67 c -1.42,6 -1.32,9.25 -0.69,12.54 v 0.14 1.81 z"
     id="path188" />
  <polygon
     points="264.15,265.65 259.57,278.06 218.85,278.06 223.43,265.65 "
     id="polygon192"
     transform="translate(-49.68,-225.42949)" />
  <path
     d="m 219.78,94.080512 c -13,0 -20.4,-3.46 -20.4,-9.51 0,-3.62 2.78,-6.67 7.75,-8.62 a 10.4,10.4 0 0 1 -3.84,-8.54 c 0,-8.25 6,-12.5 11.4,-15 a 15.57,15.57 0 0 1 -3.16,-9.28 c 0,-10.36 10.9,-19.45 23.32,-19.45 a 18.51,18.51 0 0 1 8.7,2.2 l 16.14,-6.86 1,1.91 -3,13.58 h -1.77 l -6.6,-1.94 a 13.75,13.75 0 0 1 2.29,7.63 c 0,9.91 -11.07,18.93 -23.23,18.93 a 16.68,16.68 0 0 1 -9.35,-2.67 c -0.9,0.51 -2,1.38 -2,2.57 0,0.64 0,2.14 11.14,3.18 15,1.35 21.32,5.51 21.32,13.9 -0.01,11.26 -11.11,17.97 -29.71,17.97 z m -6.32,-15 a 4.73,4.73 0 0 0 -2.47,4 c 0,3.21 4.27,4.83 12.69,4.83 5.26,0 11.54,-0.65 11.54,-3.78 0,-1 -1.35,-2.53 -13,-3.52 a 49.47,49.47 0 0 1 -8.76,-1.55 z m 21.75,-49.83 c -2.63,0 -7.81,15 -7.81,22.61 0,0.65 0.08,1.76 0.62,1.76 2.63,0 7.82,-15 7.82,-22.62 0,-0.67 -0.08,-1.77 -0.63,-1.77 z"
     id="path196" />
  <path
     d="m 261.13,74.280512 c -5.66,0 -11.7,-4 -11.7,-15.31 0,-14.24 10.68,-35.29 33.61,-35.29 a 38.88,38.88 0 0 1 9.54,1.18 l 5.74,-1.18 h 3 l -9.2,34.7 c -2,6.77 0,9 2.48,10.37 l 0.77,0.43 v 2.6 l -24.73,2.16 1.61,-5.77 c -2.85,3.53 -6.48,6.11 -11.12,6.11 z m 19.07,-45 c -5.23,0 -12.43,15.14 -12.43,26.13 0,1.11 0.12,4.75 1.7,4.75 3.5,0 7,-12.1 8.13,-16.08 l 3.87,-13.88 a 1.21,1.21 0 0 0 -1.27,-0.97 z"
     id="path200" />
  <path
     d="m 296.79,72.870512 v -2.13 l 0.26,-0.38 c 3.17,-4.71 4.21,-8.87 6.08,-17.09 l 2,-9.15 c 1.23,-5.77 0.58,-10.64 -1.84,-13.7 l -0.33,-0.41 v -1.91 l 25,-5.32 -2.55,11.34 c 4.71,-6.94 10.33,-10.44 16.81,-10.44 h 2 l -6.67,22 h -1.73 l -0.32,-0.15 a 10.24,10.24 0 0 0 -4.92,-1 c -3.93,0 -6.74,0.85 -9.72,12.17 l -0.45,1.67 c -1.42,6 -1.32,9.25 -0.69,12.54 v 0.14 1.81 z"
     id="path204" />
  <path
     d="m 337.32,72.870512 v -2.13 l 0.26,-0.38 c 3.17,-4.71 4.21,-8.87 6.08,-17.09 l 1.77,-8.26 c 1.44,-6.34 0.76,-11.23 -2,-14.56 l -0.34,-0.42 v -1.94 l 25.44,-5.29 -6.6,30.94 c -2.15,9.85 -2.49,13.37 -1.68,17.14 v 0.16 1.83 z m 21.73,-50.77 a 10.3,10.3 0 1 1 0,-20.6 10.48,10.48 0 0 1 10.63,10.3 10.36,10.36 0 0 1 -10.62,10.3 z"
     id="path208" />
  <path
     d="m 379.99,74.280512 c -3.74,0 -6.76,-1.31 -8.74,-3.79 -2.58,-3.25 -3.2,-8.23 -1.77,-14.41 l 5.52,-24.3 h -4 l 0.93,-4.75 22.14,-12.68 h 3.33 l -2.39,10.73 h 11.65 l -1.29,6.7 h -11.85 l -5.59,24.88 c -0.54,2.5 -0.07,3.42 0.15,3.7 0.09,0.11 0.37,0.45 1.31,0.45 2.19,0 4.92,-1.85 7.9,-5.37 l 0.9,-1.05 3.13,2.18 -0.48,1.11 c -4.52,10.26 -12.52,16.6 -20.85,16.6 z"
     id="path212" />
  <g
     id="g3082"
     style="display:inline"
     transform="translate(-49.68,-225.42949)">
    <path
       d="m 529.19,261.93 -18.48,82.6 c -3.5,15.54 -3.92,21.7 -2.52,28.28 v 0.28 h -31.64 v -0.28 c 4.62,-6.58 6.3,-12.74 9.8,-28 l 10.22,-45.5 c 3.08,-13.16 3.36,-20.3 -1.68,-29.68 v -0.28 l 34.3,-7.42 m 36.68,39.9 v 0.42 c -9.8,4.2 -16.38,9.1 -26.18,17.5 l -5,4.2 11.48,35.42 c 2.1,6.44 4.48,10.78 8.12,13.44 v 0.28 H 524.57 L 513,336.27 535,317.93 c 5.74,-4.9 7.42,-11.2 3.78,-15.68 v -0.42 h 27.16 m -31.41,-45.14 -6.18,1.31 -34.3,7.42 -3.16,0.68 v 4.51 l 0.48,0.89 c 4.16,7.73 4.44,13.51 1.31,26.88 l -10.23,45.53 c -3.41,14.87 -5,20.61 -9.17,26.58 l -0.73,1 v 5.55 h 39.64 v -4.7 l -0.08,-0.42 c -1,-4.78 -1.09,-9.3 1.3,-21 l 7.35,23.29 0.88,2.8 h 36.61 v -6.31 l -1.64,-1.2 c -2.7,-2 -4.7,-5.41 -6.67,-11.45 l -10.65,-32.84 3,-2.47 v 0 0 c 9.61,-8.24 15.82,-12.86 25.15,-16.86 l 2.42,-1 v -7.05 h -35.15 v 5.84 l 0.9,1.1 c 2.59,3.19 -0.14,7.44 -3.27,10.11 l -13.4,11.18 14.16,-63.26 1.36,-6.11 z m -5.27,9.24 z"
       fill="#ffffff"
       id="path174" />
    <path
       d="m 408.74,228.43 a 9,9 0 0 1 9.13,8.8 8.86,8.86 0 0 1 -9.13,8.8 8.71,8.71 0 0 1 -9,-8.8 8.82,8.82 0 0 1 9,-8.8 m 7.53,21.74 -6.12,28.68 c -2.12,9.77 -2.57,13.64 -1.68,17.78 v 0.17 h -20 v -0.17 c 3.37,-5 4.44,-9.42 6.3,-17.6 l 1.77,-8.27 c 1.42,-6.25 1,-11.88 -2.3,-15.84 v -0.18 l 22,-4.57 m -7.53,-24.74 a 11.89,11.89 0 0 0 -12,11.8 11.71,11.71 0 0 0 10.65,11.77 l -13.69,2.84 -2.39,0.5 V 256 l 0.69,0.83 c 2.45,3 3,7.42 1.69,13.26 l -1.78,8.31 C 390,286.61 389.05,290.45 386,295 l -0.51,0.75 v 4.09 h 26 v -3.49 l -0.07,-0.31 c -0.75,-3.52 -0.41,-6.91 1.69,-16.51 l 6.12,-28.7 1,-4.5 -4.51,0.94 -0.6,0.13 a 11.63,11.63 0 0 0 5.81,-10.13 12,12 0 0 0 -12.13,-11.8 z"
       fill="#ffffff"
       id="path210" />
    <path
       d="m 96.24,298.89 -6.72,31.5 c 6.44,-15.26 16.1,-30.8 30.52,-30.8 9.52,0 17.92,7 14.56,22.54 l -6,29.68 c -2.8,11.48 -1.82,16.24 4.48,20.16 v 0.28 L 98.64,374.49 110,323.25 c 1.12,-4.76 0.56,-8.12 -2.52,-8.12 -6.44,0 -14.28,16.8 -21.28,34.58 l -0.14,0.84 c -2.24,9.38 -2.94,15.68 -1.54,22.26 v 0.28 H 53.68 v -0.28 c 4.2,-8 6.3,-15.12 9.1,-28 l 2.8,-13.16 c 2.24,-9.66 1.54,-18.76 -3.64,-25.2 v -0.28 l 34.3,-7.28 m 5.2,-5.2 -6,1.28 -34.3,7.28 -3.17,0.68 v 4.93 l 0.88,1.09 c 5.08,6.31 4.36,15.34 2.86,21.79 v 0.07 L 58.87,344 c -2.61,12 -4.58,19.09 -8.73,27 l -0.46,0.88 v 5.27 h 38.8 v -4.7 l -0.09,-0.42 c -1.17,-5.52 -0.78,-10.88 1.52,-20.49 v -0.14 -0.13 l 0.08,-0.43 a 196,196 0 0 1 10.2,-22.61 c 3.06,-5.48 5.13,-7.65 6.24,-8.5 a 15.5,15.5 0 0 1 -0.41,2.66 v 0.05 l -11.31,51.18 -1.15,5.2 5.32,-0.34 34.44,-2.24 3.74,-0.25 v -6.25 l -1.89,-1.17 c -3.64,-2.26 -5.56,-4.12 -2.71,-15.82 v -0.07 -0.08 l 6,-29.65 c 2.31,-10.7 -0.57,-17.12 -3.4,-20.62 -3.51,-4.35 -8.86,-6.74 -15.07,-6.74 -7.89,0 -15,3.67 -21.39,11.15 l 1.5,-7 1.29,-6 z m -5.2,9.2 z"
       fill="#ffffff"
       id="path154" />
    <path
       d="m 177.84,299.59 c 9,0 17.92,3.36 17.92,12.32 0,8.96 -9.94,18.9 -38.64,20.3 a 28.12,28.12 0 0 0 -0.14,3.5 c 0,14.14 5.74,20 14.14,20 5.6,0 12.46,-2.52 16.94,-10.36 l 1.82,0.84 c -5.6,20.44 -17.64,29.12 -31.22,29.12 -15.82,0 -24.5,-11.76 -24.5,-28.7 0,-26 20.16,-47 43.68,-47 m -20.3,29 c 14.42,-3.5 19.88,-11.06 19.88,-18.9 0,-4.76 -1.68,-6 -3.78,-6 -6.3,0 -14,10.92 -16.1,24.92 m 20.3,-33 c -12.57,0 -24.49,5.33 -33.58,15 a 52.43,52.43 0 0 0 -14.1,36 c 0,19.86 11.19,32.7 28.5,32.7 a 31.77,31.77 0 0 0 21.23,-7.89 c 6.3,-5.5 11,-13.63 13.85,-24.18 l 0.89,-3.26 -3.08,-1.42 -1.82,-0.84 -3.32,-1.54 -1.82,3.18 c -4.15,7.26 -10.22,8.35 -13.47,8.35 -2.5,0 -10.06,0 -10.14,-15.76 12.15,-0.94 21.66,-3.5 28.33,-7.63 6.67,-4.13 10.45,-10 10.45,-16.43 0,-9.92 -8.61,-16.32 -21.92,-16.32 z m -14.87,27 c 2.74,-8.95 7.58,-14.39 10.27,-14.9 a 8.46,8.46 0 0 1 0.18,2 c 0,5.51 -3.66,10 -10.45,12.92 z"
       fill="#ffffff"
       id="path158" />
    <path
       d="m 354,302 v 0.28 l -43.8,71.51 H 299 l -1.26,-40.74 -25.48,40.74 H 261.2 l -1.54,-49.14 c -0.28,-11.06 -2,-17.36 -5.88,-22.4 V 302 H 284 l 1.12,42.56 12.32,-19.88 c -0.28,-9.94 -1.82,-17.36 -5.6,-22.4 V 302 H 322 l 1,42.42 5.88,-10.08 c 10.5,-18.34 10.5,-27 3.78,-32.06 V 302 H 354 m 4,-4 h -29.4 v 6.28 l 1.6,1.2 c 2.3,1.73 7,5.26 -3.59,24.62 l -0.66,-28.2 -0.09,-3.9 h -76.08 v 5.65 l 0.84,1.08 c 3.37,4.34 4.78,10 5,20.05 l 1.54,49.16 0.12,3.88 h 17.15 l 1.18,-1.88 18.5,-29.58 0.85,27.58 0.12,3.88 h 17.32 l 1.17,-1.91 43.82,-71.54 0.59,-1 V 298 Z m -69.24,33.08 -0.71,-27.19 0.59,0.79 c 2.87,3.83 4.39,9.87 4.76,18.92 z"
       fill="#ffffff"
       id="path162" />
    <path
       d="m 390.36,299.59 c 16.8,0 28.14,13.44 28.14,31.22 0,22.68 -22.68,44.52 -44.8,44.52 -16.66,0 -28,-13.58 -28,-31.22 0,-22.68 22.68,-44.52 44.66,-44.52 m -15.82,71.68 c 11.48,0 19.74,-41.72 19.74,-58.1 0,-7.14 -1.82,-9.52 -4.76,-9.52 -11.48,0 -19.74,41.72 -19.74,58 0,7.28 2,9.66 4.76,9.66 m 15.82,-75.68 c -24.56,0 -48.66,24 -48.66,48.52 0,20.4 13.45,35.22 32,35.22 24.62,0 48.8,-24 48.8,-48.52 0,-20.41 -13.52,-35.22 -32.14,-35.22 z m -15.74,71.67 c -0.23,-0.39 -0.84,-1.79 -0.84,-5.65 0,-7.31 1.86,-21.33 5.41,-34 4.55,-16.18 9,-19.92 10.3,-20 0.21,0.38 0.79,1.75 0.79,5.52 0,7.35 -1.87,21.43 -5.42,34.11 -4.47,16 -8.9,19.81 -10.24,20 z"
       fill="#ffffff"
       id="path166" />
    <path
       d="m 460.9,298.89 -7.28,32.62 c 7.42,-18.76 17.78,-31.92 32.9,-31.92 l -9.1,30.24 h -0.56 A 18.53,18.53 0 0 0 468,328 c -8.41,0 -13,3.5 -17.64,21.14 l -0.7,2.66 c -2.24,9.52 -2.24,15.12 -1.12,21 v 0.28 h -31.5 v -0.28 c 5.32,-8 7,-15 9.94,-28 l 3.22,-14.56 c 2,-9.24 1.26,-17.92 -3.36,-23.8 v -0.28 l 34,-7.28 m 25.62,0.7 v 0 m -20.36,-5.92 -6.1,1.31 -34,7.27 -3.16,0.68 v 4.9 l 0.85,1.09 c 3.52,4.48 4.45,11.76 2.59,20.5 l -3.21,14.52 c -3,13.21 -4.51,19.37 -9.36,26.65 l -0.67,1 v 5.49 h 39.5 v -4.66 l -0.08,-0.37 c -0.95,-5 -1.1,-10 1.08,-19.29 l 0.68,-2.61 C 459,332 463.2,332 468,332 a 14.67,14.67 0 0 1 7,1.39 l 0.84,0.43 h 4.48 l 0.86,-2.85 9.1,-30.24 1.55,-5.15 h -5.38 c -8.78,0 -16.58,3.83 -23.34,11.42 l 1.62,-7.25 1.36,-6.09 z m -5.26,9.22 z"
       fill="#ffffff"
       id="path170" />
    <path
       d="m 237.12,284.75 v 0 m 0,0 -3.78,17.08 h 18.48 l -1.12,5.88 h -18.62 l -9.24,41.44 c -1.4,6.58 0.56,9.52 4.62,9.52 4.76,0 9.8,-4.06 14.28,-9.38 l 1.54,1.12 c -6.44,14.84 -18.06,24.92 -30.66,24.92 -12,0 -18.06,-9.52 -14.28,-26 l 9.38,-41.58 h -6.44 l 0.7,-3.64 33.46,-19.32 h 1.68 m 14.7,17.08 v 0 m -9.72,-21.08 h -7.73 l -0.93,0.53 -33.44,19.28 -1.58,0.92 -0.35,1.79 -0.7,3.64 -0.91,4.76 h 6.28 l -8.28,36.7 c -2.37,10.34 -1.28,18.76 3.15,24.32 3.44,4.32 8.64,6.6 15,6.6 13.86,0 27,-10.48 34.33,-27.33 l 1.27,-2.94 -2.59,-1.89 -1.54,-1.12 -3,-2.19 -2.4,2.85 c -4.32,5.13 -8.31,8 -11.22,8 a 1.88,1.88 0 0 1 -0.81,-0.12 v 0 c 0,0 -0.66,-1 0.1,-4.57 l 8.53,-38.27 H 254 l 0.62,-3.25 1.12,-5.89 0.9,-4.74 h -18.32 l 2.7,-12.22 z m -5,0 z m 0,8 z"
       fill="#ffffff"
       id="path178" />
    <path
       d="m 96.21,250.17 -4.35,20.06 c 3.91,-9.68 9.85,-19.62 18.81,-19.62 5.94,0 10.91,4.4 8.87,14.52 l -1.33,6.6 c 3.9,-10.12 9.93,-21.12 19.33,-21.12 6.12,0 11.36,4.4 9.32,14.16 L 143,283.43 c -1.69,7.74 -1.16,10.73 2.92,12.67 v 0.18 l -21.92,1.4 7.28,-32.2 c 0.62,-2.91 0.35,-5.11 -1.51,-5.11 -4.08,0 -8.69,10.65 -13.13,22.27 l -0.09,0.7 c -1.42,6.16 -1.24,10.74 -0.71,13.29 v 0.17 h -20 v -0.17 c 2,-2.64 3,-6.78 4.79,-14.17 l 3.72,-17 c 0.62,-2.91 0.45,-5.11 -1.42,-5.11 -4.08,0 -8.69,10.65 -13.12,22 v 0.27 c -1.42,5.89 -1.87,9.85 -1,14 v 0.17 h -20.1 v -0.17 c 3.37,-5 4.44,-9.51 6.3,-17.6 l 1.78,-8.27 c 1.41,-6.07 1,-11.79 -2.31,-15.84 v -0.18 l 21.73,-4.57 m 3.91,-3.89 -4.53,0.95 -21.73,4.58 -2.38,0.5 v 3.7 l 0.67,0.83 c 3.09,3.81 2.64,9.32 1.71,13.26 v 0.06 l -1.77,8.27 c -1.9,8.26 -2.87,12.11 -5.86,16.56 l -0.51,0.75 v 4.09 h 26.04 v -3.49 l -0.07,-0.31 c -0.72,-3.39 -0.47,-6.7 1,-12.66 l 0.09,-0.35 v -0.05 c 1.8,-4.61 3.9,-9.75 5.93,-13.65 a 31.37,31.37 0 0 1 2.65,-4.33 l -3.69,16.83 c -1.6,6.67 -2.66,10.88 -4.28,13.06 l -0.58,0.79 v 4.16 h 26 v -3.48 l -0.06,-0.3 c -0.23,-1.11 -0.86,-5.24 0.7,-12 v -0.14 -0.15 -0.35 a 152.12,152.12 0 0 1 6,-14.05 29.38,29.38 0 0 1 2.77,-4.51 v 0 l -7.17,32.16 -0.89,3.92 4,-0.26 21.9,-1.41 2.81,-0.18 v -4.87 l -1.71,-0.81 c -1.81,-0.86 -3,-1.42 -1.28,-9.32 l 3.9,-18.68 c 1.45,-6.93 -0.45,-11.1 -2.29,-13.37 a 12.49,12.49 0 0 0 -10,-4.41 c -5.63,0 -10.6,3 -15,9.14 a 12.18,12.18 0 0 0 -2.4,-4.93 11.9,11.9 0 0 0 -9.47,-4.21 c -4.41,0 -8.4,1.81 -12,5.48 l 0.49,-2.29 1,-4.52 z m 1.45,16.19 z"
       fill="#ffffff"
       id="path182" />
    <path
       d="m 196.37,250.61 -8.69,32.82 c -1.77,6 -0.89,9.77 3.19,12.05 v 0.36 l -21.2,1.84 4.44,-15.83 c -3.46,8.27 -8.34,16.36 -16,16.36 -5.76,0 -10.2,-4.49 -10.2,-13.81 0,-14.35 10.56,-33.79 32.11,-33.79 a 36.41,36.41 0 0 1 9.49,1.23 l 6,-1.23 h 0.88 M 166.48,287 c 3.82,0 6.74,-7.31 9.58,-17.16 l 4,-14.35 a 2.83,2.83 0 0 0 -2.84,-2.37 c -6.74,0 -13.92,16.81 -13.92,27.63 0,4.93 1.59,6.25 3.19,6.25 m 33.79,-39.43 h -5.09 l -0.3,0.06 -5.24,1.08 a 40.07,40.07 0 0 0 -9.59,-1.14 32.88,32.88 0 0 0 -26.48,12.64 40,40 0 0 0 -8.63,24.15 c 0,12.41 7.11,16.81 13.2,16.81 a 13.78,13.78 0 0 0 8.19,-2.71 l -0.71,2.55 4.31,-0.38 21.2,-1.84 2.74,-0.24 v -4.86 l -1.53,-0.86 c -1.88,-1.06 -3.56,-2.59 -1.78,-8.59 v -0.08 l 8.69,-32.83 1,-3.76 z m -33.58,36.35 a 8.76,8.76 0 0 1 -0.41,-3.13 c 0,-10.62 6.72,-23.51 10.46,-24.56 l -3.58,12.84 a 72.4,72.4 0 0 1 -4,11.41 c -1.17,2.38 -2,3.18 -2.42,3.44 z"
       fill="#ffffff"
       id="path186" />
    <path
       d="m 219.07,250.17 -4.61,20.5 c 4.7,-11.79 11.27,-20.06 20.85,-20.06 l -5.77,19 h -0.35 a 11.88,11.88 0 0 0 -5.59,-1.14 c -5.32,0 -8.25,2.2 -11.18,13.29 l -0.44,1.67 c -1.42,6 -1.42,9.5 -0.71,13.2 v 0.17 h -20 v -0.17 c 3.37,-5 4.44,-9.42 6.3,-17.6 l 2,-9.15 c 1.24,-5.81 0.8,-11.27 -2.13,-15 v -0.18 l 21.55,-4.57 m 4,-3.91 -4.58,1 -21.55,4.58 -2.38,0.5 v 3.7 l 0.65,0.82 c 2.14,2.7 2.69,7.13 1.54,12.47 l -2,9.13 c -1.87,8.23 -2.83,12.07 -5.86,16.58 l -0.51,0.75 v 4.09 h 26 v -3.46 l -0.06,-0.28 c -0.59,-3.08 -0.68,-6.15 0.68,-11.9 l 0.43,-1.63 c 2.92,-11.06 5.28,-11.06 8.28,-11.06 a 8.85,8.85 0 0 1 4.25,0.83 l 0.63,0.31 h 3.29 l 0.64,-2.13 5.77,-19 1.17,-3.87 h -4 q -7.8,0 -14,6.1 l 0.65,-2.89 1,-4.56 z"
       fill="#ffffff"
       id="path190" />
    <path
       d="m 262,267.15 -3.47,9.42 H 221 l 3.47,-9.42 H 262 m 4.3,-3 h -43.92 l -0.72,2 -3.47,9.42 -1.49,4 h 43.92 l 0.72,-2 3.47,-9.41 1.49,-4 z"
       fill="#ffffff"
       id="path194" />
    <path
       d="m 308.66,246.38 0.09,0.18 -2.66,11.88 h -0.36 l -11.35,-3.35 v 0.18 a 13,13 0 0 1 5.41,10.38 c 0,9.16 -10.47,17.43 -21.73,17.43 a 15.17,15.17 0 0 1 -9.23,-2.91 c -1.59,0.71 -3.63,2.12 -3.63,4.31 0,2 1.15,3.61 12.5,4.67 16.5,1.5 20,6.33 20,12.41 0,11.08 -11.79,16.45 -28.2,16.45 -12.51,0 -18.9,-3.17 -18.9,-8 0,-4 4.35,-6.77 9.76,-8.18 -4.7,-2.29 -5.85,-5.63 -5.85,-9 0,-8.36 6.83,-12.14 12.32,-14.43 a 14.46,14.46 0 0 1 -4.08,-9.85 c 0,-9.68 10.56,-17.95 21.82,-17.95 a 16.93,16.93 0 0 1 8.61,2.37 l 15.52,-6.6 m -31,34.15 c 4.53,0 9.32,-17.34 9.32,-24.12 0,-2.55 -1.07,-3.25 -2.13,-3.25 -4.52,0 -9.31,17.33 -9.31,24.11 0,2.55 1.06,3.26 2.12,3.26 m -4.34,34.31 c 7.89,0 13,-1.4 13,-5.28 0,-2.28 -1.95,-4 -14.37,-5 a 46.47,46.47 0 0 1 -9,-1.67 6.34,6.34 0 0 0 -3.81,5.63 c 0,4.75 5.85,6.33 14.19,6.33 m 36.71,-72.32 -2.58,1.1 -14.2,6 a 19.9,19.9 0 0 0 -8.76,-2 c -13.22,0 -24.82,9.79 -24.82,20.95 a 16.9,16.9 0 0 0 2.45,8.67 c -4.58,2.37 -10.69,6.91 -10.69,15.61 a 12.1,12.1 0 0 0 2.74,8.07 c -4.28,2.2 -6.65,5.37 -6.65,9.09 0,4.11 2.85,11 21.9,11 19.54,0 31.2,-7.27 31.2,-19.45 0,-9.23 -7,-14 -22.68,-15.4 l -1.35,-0.13 c 0.47,0 0.95,0.05 1.43,0.05 12.94,0 24.73,-9.74 24.73,-20.43 a 15.29,15.29 0 0 0 -0.91,-5.22 l 3,0.89 0.41,0.12 h 3.19 l 0.53,-2.35 2.66,-11.88 0.23,-1.05 -0.48,-1 -0.09,-0.17 -1.27,-2.51 z m -31.45,33.54 c 0.38,-5.56 3.12,-14.71 5.35,-18.44 -0.37,5.57 -3.11,14.72 -5.35,18.44 z m -10.4,8.29 a 1.61,1.61 0 0 1 0.53,-0.65 18.13,18.13 0 0 0 6.06,2.12 c -4.5,-0.57 -6.07,-1.18 -6.59,-1.47 z m 5.14,27.49 c -3.37,0 -11.19,-0.32 -11.19,-3.33 a 3.06,3.06 0 0 1 1.25,-2.39 52.94,52.94 0 0 0 8.33,1.42 c 8.65,0.73 11,1.7 11.62,2.13 -0.25,0.86 -2.55,2.17 -10,2.17 z"
       fill="#ffffff"
       id="path198" />
    <path
       d="m 349,250.61 -8.7,32.82 c -1.77,6 -0.88,9.77 3.2,12.05 v 0.36 l -21.2,1.84 4.43,-15.83 c -3.46,8.27 -8.33,16.36 -16,16.36 -5.77,0 -10.2,-4.49 -10.2,-13.81 0,-14.35 10.55,-33.79 32.11,-33.79 a 36.47,36.47 0 0 1 9.49,1.23 l 5.94,-1.23 H 349 M 319.15,287 c 3.81,0 6.74,-7.31 9.57,-17.16 l 4,-14.35 a 2.84,2.84 0 0 0 -2.84,-2.37 c -6.74,0 -13.93,16.81 -13.93,27.63 0,4.93 1.6,6.25 3.2,6.25 m 33.78,-39.43 h -5.09 l -0.3,0.06 -5.24,1.08 a 40.05,40.05 0 0 0 -9.58,-1.14 32.87,32.87 0 0 0 -26.48,12.64 39.88,39.88 0 0 0 -8.63,24.15 c 0,12.41 7.11,16.81 13.2,16.81 a 13.83,13.83 0 0 0 8.18,-2.7 l -0.71,2.54 4.32,-0.38 21.2,-1.84 2.74,-0.24 v -4.86 L 345,292.83 c -1.87,-1.06 -3.56,-2.59 -1.78,-8.59 v -0.08 l 8.7,-32.83 1,-3.76 z m -33.56,36.31 a 8.43,8.43 0 0 1 -0.42,-3.13 c 0,-10.62 6.72,-23.51 10.46,-24.56 l -3.58,12.84 a 71.75,71.75 0 0 1 -4,11.4 c -1.18,2.39 -2,3.19 -2.42,3.45 z"
       fill="#ffffff"
       id="path202" />
    <path
       d="m 375.74,250.17 -4.62,20.5 c 4.71,-11.79 11.27,-20.06 20.85,-20.06 l -5.77,19 h -0.35 a 11.88,11.88 0 0 0 -5.59,-1.14 c -5.32,0 -8.25,2.2 -11.18,13.29 l -0.44,1.67 c -1.42,6 -1.42,9.5 -0.71,13.2 v 0.17 H 348 v -0.17 c 3.37,-5 4.44,-9.42 6.3,-17.6 l 2,-9.15 c 1.24,-5.81 0.8,-11.27 -2.13,-15 v -0.18 l 21.56,-4.57 m 3.95,-3.91 -4.58,1 -21.55,4.58 -2.38,0.5 v 3.7 l 0.65,0.82 c 2.14,2.7 2.69,7.13 1.55,12.47 l -2,9.13 c -1.87,8.23 -2.83,12.07 -5.86,16.58 l -0.51,0.75 v 4.09 h 26 v -3.46 l -0.05,-0.28 c -0.59,-3.08 -0.69,-6.15 0.67,-11.9 l 0.43,-1.63 c 2.92,-11.06 5.29,-11.06 8.28,-11.06 a 8.87,8.87 0 0 1 4.26,0.83 l 0.63,0.31 h 3.28 l 0.64,-2.13 5.77,-19 1.17,-3.87 h -4 a 19.32,19.32 0 0 0 -14,6.1 l 0.64,-2.89 1,-4.56 z"
       fill="#ffffff"
       id="path206" />
    <path
       d="M 445.19,241.28 442.8,252 h 11.7 l -0.71,3.7 H 442 l -5.86,26 c -0.88,4.13 0.36,6 2.93,6 3,0 6.21,-2.55 9.05,-5.89 l 1,0.7 c -4.08,9.33 -11.44,15.66 -19.42,15.66 -7.63,0 -11.44,-6 -9.05,-16.36 l 5.94,-26.14 h -4.08 l 0.45,-2.29 21.2,-12.14 h 1.06 m 3.74,-3 h -5.6 l -0.69,0.4 -21.2,12.14 -1.2,0.68 -0.26,1.35 -0.44,2.29 -0.7,3.57 h 4 l -5.11,22.47 c -1.94,8.38 0.05,13.15 2.06,15.67 2.27,2.85 5.7,4.36 9.91,4.36 9,0 17.46,-6.69 22.17,-17.46 l 1,-2.22 -2,-1.41 -1,-0.71 -2.24,-1.62 -1.8,2.11 c -2.61,3.08 -5.07,4.84 -6.76,4.84 h -0.16 a 5.79,5.79 0 0 1 0.17,-2.34 l 5.32,-23.68 h 11.87 l 0.47,-2.43 0.71,-3.7 0.68,-3.57 h -11.62 l 1.58,-7.08 0.81,-3.65 z"
       fill="#ffffff"
       id="path214" />
    <path
       d="m 498.52,250.61 -8.7,32.82 c -1.77,6 -0.88,9.77 3.2,12.05 v 0.36 l -21.2,1.84 4.43,-15.83 c -3.46,8.27 -8.33,16.36 -16,16.36 -5.77,0 -10.2,-4.49 -10.2,-13.81 0,-14.35 10.55,-33.79 32.11,-33.79 a 36.47,36.47 0 0 1 9.49,1.23 l 5.94,-1.23 h 0.89 M 468.62,287 c 3.82,0 6.75,-7.31 9.58,-17.16 l 4,-14.35 a 2.84,2.84 0 0 0 -2.84,-2.37 c -6.74,0 -13.93,16.81 -13.93,27.63 0,4.93 1.6,6.25 3.19,6.25 m 33.79,-39.43 h -5.09 l -0.3,0.06 -5.24,1.08 a 40.05,40.05 0 0 0 -9.58,-1.14 32.87,32.87 0 0 0 -26.48,12.64 39.88,39.88 0 0 0 -8.63,24.15 c 0,12.41 7.11,16.81 13.2,16.81 a 13.83,13.83 0 0 0 8.18,-2.7 l -0.71,2.54 4.32,-0.38 21.2,-1.84 2.74,-0.24 v -4.86 l -1.54,-0.86 c -1.87,-1.06 -3.56,-2.59 -1.78,-8.59 v -0.08 l 8.7,-32.83 1,-3.76 z m -33.56,36.31 a 8.43,8.43 0 0 1 -0.42,-3.13 c 0,-10.62 6.72,-23.51 10.46,-24.56 l -3.58,12.84 a 71.75,71.75 0 0 1 -4,11.4 c -1.18,2.39 -2,3.19 -2.42,3.45 z"
       fill="#ffffff"
       id="path218" />
  </g>
  <g
     id="g3172"
     style="display:inline;fill:#e77681"
     transform="translate(-49.68,-225.42949)">
    <path
       d="m 460.29,299.71 c -5.66,0 -11.7,-4 -11.7,-15.31 0,-14.24 10.68,-35.29 33.61,-35.29 a 38.88,38.88 0 0 1 9.54,1.18 l 5.73,-1.18 h 3 l -9.2,34.7 c -2,6.77 0,9 2.48,10.37 l 0.77,0.43 v 2.6 l -24.73,2.16 1.61,-5.77 c -2.84,3.53 -6.47,6.11 -11.11,6.11 z m 19.07,-45 c -5.23,0 -12.43,15.14 -12.43,26.13 0,1.11 0.12,4.75 1.69,4.75 3.51,0 7,-12.1 8.14,-16.08 l 3.86,-13.88 a 1.2,1.2 0 0 0 -1.26,-0.97 z"
       fill="#366"
       stroke="#ffffff"
       stroke-miterlimit="10"
       stroke-width="0.75"
       id="path284"
       style="fill:#e77681" />
    <path
       d="m 460.29,299.71 c -5.66,0 -11.7,-4 -11.7,-15.31 0,-14.24 10.68,-35.29 33.61,-35.29 a 38.88,38.88 0 0 1 9.54,1.18 l 5.73,-1.18 h 3 l -9.2,34.7 c -2,6.77 0,9 2.48,10.37 l 0.77,0.43 v 2.6 l -24.73,2.16 1.61,-5.77 c -2.84,3.53 -6.47,6.11 -11.11,6.11 z m 19.07,-45 c -5.23,0 -12.43,15.14 -12.43,26.13 0,1.11 0.12,4.75 1.69,4.75 3.51,0 7,-12.1 8.14,-16.08 l 3.86,-13.88 a 1.2,1.2 0 0 0 -1.26,-0.97 z"
       id="path216"
       style="fill:#e77681;fill-opacity:1" />
    <path
       d="m 108,322.81 c 0.74,-3.17 0.51,-4.93 0.08,-5.47 -0.06,-0.07 -0.17,-0.21 -0.65,-0.21 -2.87,0 -8.55,5.75 -19.34,33.11 l -0.12,0.7 v 0.07 c -2.34,9.81 -2.75,15.61 -1.52,21.38 v 0.21 2.49 H 51.68 v -2.78 l 0.23,-0.43 c 4.26,-8.09 6.27,-15.32 8.92,-27.5 l 2.79,-13.15 c 1.61,-6.92 2.34,-16.59 -3.24,-23.53 l -0.44,-0.55 v -2.6 l 38.9,-8.26 -4.13,19.35 c 7.43,-12.12 15.78,-18.05 25.33,-18.05 5.59,0 10.39,2.13 13.52,6 2.55,3.17 5.14,9 3,19 l -6,29.65 c -2.89,11.86 -1.31,15 3.58,18.07 l 0.94,0.59 v 3.26 l -39,2.54 z"
       fill="#366"
       stroke="#ffffff"
       stroke-miterlimit="10"
       stroke-width="0.75"
       id="path220"
       style="fill:#e77681" />
    <path
       d="m 158.66,377.33 c -16.35,0 -26.5,-11.77 -26.5,-30.7 A 50.43,50.43 0 0 1 145.72,312 c 8.7,-9.27 20.11,-14.38 32.12,-14.38 12.29,0 19.92,5.48 19.92,14.32 0,4.69 -2.84,20 -38.77,22.2 0,0.5 0,1 0,1.6 0,12 4.08,18 12.14,18 3.68,0 10.55,-1.22 15.2,-9.35 l 0.91,-1.6 5,2.32 -0.44,1.64 c -5.4,19.71 -17.17,30.58 -33.14,30.58 z m 15,-71.68 c -4.63,0 -11,8.42 -13.56,20.14 9.92,-3.12 15.34,-8.77 15.34,-16.12 -0.02,-4.02 -1.22,-4.02 -1.8,-4.02 z"
       fill="#366"
       stroke="#ffffff"
       stroke-miterlimit="10"
       stroke-width="0.75"
       id="path224"
       style="fill:#e77681" />
    <path
       d="m 297.06,375.79 -1.12,-36.1 -22.58,36.1 h -14.1 l -1.6,-51.08 c -0.27,-10.58 -1.8,-16.53 -5.46,-21.24 l -0.42,-0.54 v -3 H 286 l 1,37.82 8.48,-13.68 c -0.34,-9.82 -2,-16.4 -5.18,-20.66 l -0.4,-0.54 V 300 h 34.05 l 0.86,37.3 2.32,-4 c 11.53,-20.15 8.65,-26.2 4.31,-29.45 l -0.8,-0.6 V 300 H 356 v 2.84 l -44.7,73 z"
       fill="#366"
       stroke="#ffffff"
       stroke-miterlimit="10"
       stroke-width="0.75"
       id="path228"
       style="fill:#e77681" />
    <path
       d="m 373.7,377.33 c -17.39,0 -30,-14 -30,-33.22 0,-23.48 23.11,-46.52 46.66,-46.52 17.46,0 30.14,14 30.14,33.22 0,23.47 -23.19,46.52 -46.8,46.52 z m 15.82,-71.68 c -8.84,0 -17.74,38.37 -17.74,56 0,3.49 0.47,7.66 2.76,7.66 3,0 7.81,-5.64 12.25,-21.45 3.6,-12.85 5.49,-27.16 5.49,-34.65 0,-7.49 -2.08,-7.56 -2.76,-7.56 z"
       fill="#366"
       stroke="#ffffff"
       stroke-miterlimit="10"
       stroke-width="0.75"
       id="path232"
       style="fill:#e77681" />
    <path
       d="m 415.08,375.09 v -2.89 l 0.33,-0.5 c 5,-7.56 6.69,-14.21 9.65,-27.33 l 3.22,-14.56 c 2,-9.3 0.92,-17.17 -3,-22.13 l -0.42,-0.54 v -2.59 l 38.65,-8.27 -4.32,19.32 c 7.54,-12.09 16.55,-18 27.31,-18 h 2.69 l -10.29,34.23 h -2.52 l -0.42,-0.21 A 16.44,16.44 0 0 0 468,330 c -6.38,0 -10.92,1.36 -15.71,19.64 l -0.7,2.67 c -2.26,9.61 -2.1,14.83 -1.09,20.11 v 0.19 2.47 z"
       fill="#366"
       stroke="#ffffff"
       stroke-miterlimit="10"
       stroke-width="0.75"
       id="path236"
       style="fill:#e77681" />
    <path
       d="m 523.11,375.09 -10.06,-31.86 -0.38,1.73 c -3.34,14.79 -3.9,21 -2.52,27.43 v 0.21 2.49 h -35.6 v -2.92 l 0.37,-0.51 c 4.4,-6.27 6,-12.13 9.48,-27.3 l 10.22,-45.49 c 2.94,-12.54 3.38,-19.24 -1.49,-28.3 l -0.24,-0.44 v -2.4 l 38.94,-8.42 -16.12,72.05 17.94,-15 c 4.93,-4.21 6.35,-9.39 3.51,-12.88 l -0.45,-0.55 v -3.13 h 31.16 v 3.73 l -1.21,0.52 c -9.56,4.1 -15.9,8.81 -25.66,17.18 l -4,3.36 11,34.16 c 2.11,6.47 4.32,10.2 7.39,12.44 l 0.82,0.6 v 3.3 z"
       fill="#366"
       stroke="#ffffff"
       stroke-miterlimit="10"
       stroke-width="0.75"
       id="path240"
       style="fill:#e77681" />
    <path
       d="m 212.62,377.33 c -5.76,0 -10.42,-2 -13.46,-5.85 -4,-5.06 -5,-12.89 -2.77,-22.64 l 8.83,-39.13 h -6.36 l 1.33,-6.92 34.71,-20 h 4.71 l -3.78,17.08 h 18.4 l -1.88,9.88 h -18.67 l -8.89,39.87 c -0.85,4 -0.16,5.63 0.33,6.24 0.17,0.21 0.68,0.85 2.34,0.85 3.56,0 8,-3 12.75,-8.67 l 1.2,-1.42 4.34,3.15 -0.64,1.47 c -6.99,16.08 -19.44,26.09 -32.49,26.09 z"
       fill="#366"
       stroke="#ffffff"
       stroke-miterlimit="10"
       stroke-width="0.75"
       id="path244"
       style="fill:#e77681" />
    <path
       d="m 129.78,265.15 c 0.47,-2.21 0.2,-3.11 0.06,-3.27 h -0.1 c -3.56,0 -9.59,15.7 -11.66,21.13 l -0.08,0.6 v 0.08 c -1.58,6.87 -1,11.13 -0.7,12.64 v 0.15 1.83 h -23 v -2.17 l 0.29,-0.39 c 1.79,-2.42 2.84,-6.55 4.54,-13.63 l 3.72,-16.95 c 0.51,-2.41 0.19,-3.15 0.12,-3.28 h -0.08 c -3.45,0 -9.3,14.84 -11.62,20.79 v 0.16 0.17 c -1.47,6.13 -1.73,9.74 -1,13.32 v 0.16 1.83 H 67.21 v -2.13 l 0.26,-0.38 c 3.26,-4.86 4.26,-9.2 6.08,-17.1 l 1.77,-8.25 c 1,-4.3 1.47,-10.29 -2,-14.58 l -0.33,-0.41 v -1.93 l 25.19,-5.3 -2.35,10.85 c 4.35,-6.69 9.26,-10 14.85,-10 a 10.45,10.45 0 0 1 8.31,3.66 c 1.29,1.56 2.59,4.19 2.52,8.37 4.66,-8.08 10,-12 16,-12 a 11,11 0 0 1 8.79,3.85 c 1.64,2 3.32,5.77 2,12.12 l -3.91,18.66 c -1.78,8.18 -0.67,9.69 2.1,11 l 0.86,0.4 v 2.53 l -25.31,1.63 z"
       fill="#366"
       stroke="#ffffff"
       stroke-miterlimit="10"
       stroke-width="0.75"
       id="path248"
       style="fill:#e77681" />
    <path
       d="m 158.14,299.71 c -5.65,0 -11.7,-4 -11.7,-15.31 0,-14.24 10.68,-35.29 33.61,-35.29 a 38.9,38.9 0 0 1 9.55,1.18 l 5.73,-1.18 h 3 l -9.19,34.7 c -2,6.77 0,9 2.48,10.37 l 0.76,0.43 v 2.6 l -24.72,2.16 1.61,-5.77 c -2.86,3.52 -6.48,6.11 -11.13,6.11 z m 19.07,-45 c -5.22,0 -12.42,15.14 -12.42,26.13 0,1.11 0.12,4.75 1.69,4.75 3.51,0 7,-12.1 8.14,-16.08 l 3.86,-13.88 a 1.21,1.21 0 0 0 -1.27,-0.97 z"
       fill="#366"
       stroke="#ffffff"
       stroke-miterlimit="10"
       stroke-width="0.75"
       id="path252"
       style="fill:#e77681" />
    <path
       d="m 189.81,298.3 v -2.13 l 0.26,-0.38 c 3.16,-4.71 4.2,-8.87 6.08,-17.09 l 2,-9.15 c 1.24,-5.77 0.59,-10.64 -1.84,-13.7 l -0.32,-0.41 v -1.91 l 25,-5.32 -2.55,11.34 c 4.7,-6.94 10.33,-10.44 16.81,-10.44 h 2 l -6.68,22 h -1.82 l -0.31,-0.15 a 10.32,10.32 0 0 0 -4.92,-1 c -3.94,0 -6.74,0.85 -9.73,12.17 l -0.44,1.67 c -1.42,6 -1.32,9.25 -0.69,12.54 v 0.14 1.81 z"
       fill="#366"
       stroke="#ffffff"
       stroke-miterlimit="10"
       stroke-width="0.75"
       id="path256"
       style="fill:#e77681" />
    <polygon
       points="218.85,278.06 223.43,265.65 264.15,265.65 259.57,278.06 "
       fill="#366"
       stroke="#ffffff"
       stroke-miterlimit="10"
       stroke-width="0.75"
       id="polygon260"
       style="fill:#e77681" />
    <path
       d="m 269.46,319.51 c -13,0 -20.4,-3.46 -20.4,-9.51 0,-3.62 2.78,-6.67 7.75,-8.62 a 10.4,10.4 0 0 1 -3.84,-8.54 c 0,-8.25 6,-12.5 11.4,-15 a 15.57,15.57 0 0 1 -3.16,-9.28 c 0,-10.36 10.9,-19.45 23.32,-19.45 a 18.51,18.51 0 0 1 8.7,2.2 l 16.14,-6.86 1,1.91 -3,13.58 H 305.6 L 299,258 a 13.75,13.75 0 0 1 2.29,7.63 c 0,9.91 -11.07,18.93 -23.23,18.93 a 16.68,16.68 0 0 1 -9.35,-2.67 c -0.9,0.51 -2,1.38 -2,2.57 0,0.64 0,2.14 11.14,3.18 15,1.35 21.32,5.51 21.32,13.9 -0.01,11.26 -11.11,17.97 -29.71,17.97 z m -6.32,-15 a 4.73,4.73 0 0 0 -2.47,4 c 0,3.21 4.27,4.83 12.69,4.83 5.26,0 11.54,-0.65 11.54,-3.78 0,-1 -1.35,-2.53 -13,-3.52 a 49.47,49.47 0 0 1 -8.76,-1.55 z m 21.75,-49.83 c -2.63,0 -7.81,15 -7.81,22.61 0,0.65 0.08,1.76 0.62,1.76 2.63,0 7.82,-15 7.82,-22.62 0,-0.67 -0.08,-1.77 -0.63,-1.77 z"
       fill="#366"
       stroke="#ffffff"
       stroke-miterlimit="10"
       stroke-width="0.75"
       id="path264"
       style="fill:#e77681" />
    <path
       d="m 310.81,299.71 c -5.66,0 -11.7,-4 -11.7,-15.31 0,-14.24 10.68,-35.29 33.61,-35.29 a 38.88,38.88 0 0 1 9.54,1.18 l 5.74,-1.18 h 3 l -9.2,34.7 c -2,6.77 0,9 2.48,10.37 l 0.77,0.43 v 2.6 l -24.73,2.16 1.61,-5.77 c -2.85,3.53 -6.48,6.11 -11.12,6.11 z m 19.07,-45 c -5.23,0 -12.43,15.14 -12.43,26.13 0,1.11 0.12,4.75 1.7,4.75 3.5,0 7,-12.1 8.13,-16.08 l 3.87,-13.88 a 1.21,1.21 0 0 0 -1.27,-0.97 z"
       fill="#366"
       stroke="#ffffff"
       stroke-miterlimit="10"
       stroke-width="0.75"
       id="path268"
       style="fill:#e77681" />
    <path
       d="m 346.47,298.3 v -2.13 l 0.26,-0.38 c 3.17,-4.71 4.21,-8.87 6.08,-17.09 l 2,-9.15 c 1.23,-5.77 0.58,-10.64 -1.84,-13.7 l -0.33,-0.41 v -1.91 l 25,-5.32 -2.55,11.34 c 4.71,-6.94 10.33,-10.44 16.81,-10.44 h 2 l -6.67,22 h -1.73 l -0.32,-0.15 a 10.24,10.24 0 0 0 -4.92,-1 c -3.93,0 -6.74,0.85 -9.72,12.17 l -0.45,1.67 c -1.42,6 -1.32,9.25 -0.69,12.54 v 0.14 1.81 z"
       fill="#366"
       stroke="#ffffff"
       stroke-miterlimit="10"
       stroke-width="0.75"
       id="path272"
       style="fill:#e77681" />
    <path
       d="m 387,298.3 v -2.13 l 0.26,-0.38 c 3.17,-4.71 4.21,-8.87 6.08,-17.09 l 1.77,-8.26 c 1.44,-6.34 0.76,-11.23 -2,-14.56 l -0.34,-0.42 v -1.94 l 25.44,-5.29 -6.6,30.94 c -2.15,9.85 -2.49,13.37 -1.68,17.14 v 0.16 1.83 z m 21.73,-50.77 a 10.3,10.3 0 1 1 0,-20.6 10.48,10.48 0 0 1 10.63,10.3 10.36,10.36 0 0 1 -10.62,10.3 z"
       fill="#366"
       stroke="#ffffff"
       stroke-miterlimit="10"
       stroke-width="0.75"
       id="path276"
       style="fill:#e77681" />
    <path
       d="m 429.67,299.71 c -3.74,0 -6.76,-1.31 -8.74,-3.79 -2.58,-3.25 -3.2,-8.23 -1.77,-14.41 l 5.52,-24.3 h -4 l 0.93,-4.75 22.14,-12.68 h 3.33 l -2.39,10.73 h 11.65 l -1.29,6.7 H 443.2 l -5.59,24.88 c -0.54,2.5 -0.07,3.42 0.15,3.7 0.09,0.11 0.37,0.45 1.31,0.45 2.19,0 4.92,-1.85 7.9,-5.37 l 0.9,-1.05 3.13,2.18 -0.48,1.11 c -4.52,10.26 -12.52,16.6 -20.85,16.6 z"
       fill="#366"
       stroke="#ffffff"
       stroke-miterlimit="10"
       stroke-width="0.75"
       id="path280"
       style="fill:#e77681" />
  </g>
</svg>
